<?xml version="1.0" encoding="UTF-8"?>
<svg version="1.1" xmlns="http://www.w3.org/2000/svg" width="100" height="100">
<path d="M0 0 C1.25671509 0.0146228 1.25671509 0.0146228 2.53881836 0.02954102 C13.24718602 0.33656487 19.67453514 3.65587425 27.42578125 11.06640625 C35.78305402 20.0768229 37.22623039 29.16017805 36.9140625 41.04296875 C36.29971408 52.93785294 28.65653039 61.47135029 21.77661133 70.69506836 C19.60215624 73.98510142 19.52302305 76.9278333 19.375 80.75 C18.89892946 86.15020309 17.72062063 88.69044283 13.625 92.4375 C13.05652344 92.99566406 12.48804688 93.55382812 11.90234375 94.12890625 C7.43355594 98.08382934 3.50329835 99.53119293 -2.48046875 99.23828125 C-8.16586574 97.66539814 -12.32239853 93.57982696 -16.375 89.4375 C-17.54375672 87.09998657 -17.50966215 85.54084003 -17.625 82.9375 C-18.46849262 74.27929639 -22.6995434 68.18557588 -27.9375 61.4375 C-36.16154265 50.60917717 -37.90204249 40.8368063 -36.375 27.4375 C-35.54194632 23.98828336 -34.34004487 21.37588485 -32.375 18.4375 C-31.95089844 17.756875 -31.52679687 17.07625 -31.08984375 16.375 C-23.53331978 5.26122659 -13.26967896 -0.17243765 0 0 Z " fill="#92F6FC" transform="translate(49.375,0.5625)"/>
<path d="M0 0 C1.25671509 0.0146228 1.25671509 0.0146228 2.53881836 0.02954102 C13.24718602 0.33656487 19.67453514 3.65587425 27.42578125 11.06640625 C35.78305402 20.0768229 37.22623039 29.16017805 36.9140625 41.04296875 C36.29971408 52.93785294 28.65653039 61.47135029 21.77661133 70.69506836 C19.60215624 73.98510142 19.52302305 76.9278333 19.375 80.75 C18.89892946 86.15020309 17.72062063 88.69044283 13.625 92.4375 C13.05652344 92.99566406 12.48804688 93.55382812 11.90234375 94.12890625 C7.43355594 98.08382934 3.50329835 99.53119293 -2.48046875 99.23828125 C-8.16586574 97.66539814 -12.32239853 93.57982696 -16.375 89.4375 C-17.54375672 87.09998657 -17.50966215 85.54084003 -17.625 82.9375 C-18.46849262 74.27929639 -22.6995434 68.18557588 -27.9375 61.4375 C-36.16154265 50.60917717 -37.90204249 40.8368063 -36.375 27.4375 C-35.54194632 23.98828336 -34.34004487 21.37588485 -32.375 18.4375 C-31.95089844 17.756875 -31.52679687 17.07625 -31.08984375 16.375 C-23.53331978 5.26122659 -13.26967896 -0.17243765 0 0 Z M-23.375 18.4375 C-28.30874269 25.56944488 -30.45823158 32.77164738 -29.375 41.4375 C-27.09901356 50.2345712 -22.0435673 57.01722425 -16.47753906 64.00610352 C-15.96416992 64.65377686 -15.45080078 65.3014502 -14.921875 65.96875 C-14.45620117 66.54173828 -13.99052734 67.11472656 -13.51074219 67.70507812 C-12.375 69.4375 -12.375 69.4375 -11.375 73.4375 C-3.785 73.4375 3.805 73.4375 11.625 73.4375 C12.615 71.1275 13.605 68.8175 14.625 66.4375 C15.91186523 64.44042969 15.91186523 64.44042969 17.18359375 62.859375 C17.65047607 62.26141113 18.1173584 61.66344727 18.59838867 61.04736328 C19.08154541 60.4336084 19.56470215 59.81985352 20.0625 59.1875 C25.87888926 51.5026777 30.54397505 43.68190184 30.0078125 33.69140625 C28.5653405 25.19848436 24.51882481 18.07480222 17.6015625 12.93359375 C4.31568035 4.26566692 -12.89247958 6.79025508 -23.375 18.4375 Z " fill="#019BA9" transform="translate(49.375,0.5625)"/>
<path d="M0 0 C5.90756902 4.74750183 9.58759709 9.98712718 11.5546875 17.33984375 C13.24197288 32.88440905 6.38084518 42.86831517 -2.7109375 54.796875 C-5.81466343 59.34760829 -6.70992027 63.18639491 -7.0703125 68.65234375 C-7.14507812 69.72097656 -7.21984375 70.78960937 -7.296875 71.890625 C-7.34585938 72.69886719 -7.39484375 73.50710937 -7.4453125 74.33984375 C-8.7653125 74.33984375 -10.0853125 74.33984375 -11.4453125 74.33984375 C-11.5484375 74.95859375 -11.6515625 75.57734375 -11.7578125 76.21484375 C-12.4453125 78.33984375 -12.4453125 78.33984375 -15.4453125 80.33984375 C-19.15240508 80.67685217 -21.57250779 80.80981552 -24.8828125 79.02734375 C-26.4453125 77.33984375 -26.4453125 77.33984375 -26.4453125 74.33984375 C-27.7653125 74.00984375 -29.0853125 73.67984375 -30.4453125 73.33984375 C-30.47109375 72.63859375 -30.496875 71.93734375 -30.5234375 71.21484375 C-31.10895762 61.42068898 -33.94283122 56.21670388 -39.8828125 48.52734375 C-46.62063262 39.64365023 -50.44991478 32.21848644 -49.98828125 20.83984375 C-48.62768827 12.06940266 -44.34585772 5.11377058 -37.39453125 -0.328125 C-25.85194854 -8.21594204 -11.4515634 -7.77462371 0 0 Z M-42.4453125 6.33984375 C-47.37905519 13.47178863 -49.52854408 20.67399113 -48.4453125 29.33984375 C-46.16932606 38.13691495 -41.1138798 44.919568 -35.54785156 51.90844727 C-35.03448242 52.55612061 -34.52111328 53.20379395 -33.9921875 53.87109375 C-33.52651367 54.44408203 -33.06083984 55.01707031 -32.58105469 55.60742188 C-31.4453125 57.33984375 -31.4453125 57.33984375 -30.4453125 61.33984375 C-22.8553125 61.33984375 -15.2653125 61.33984375 -7.4453125 61.33984375 C-6.4553125 59.02984375 -5.4653125 56.71984375 -4.4453125 54.33984375 C-3.15844727 52.34277344 -3.15844727 52.34277344 -1.88671875 50.76171875 C-1.41983643 50.16375488 -0.9529541 49.56579102 -0.47192383 48.94970703 C0.01123291 48.33595215 0.49438965 47.72219727 0.9921875 47.08984375 C6.80857676 39.40502145 11.47366255 31.58424559 10.9375 21.59375 C9.495028 13.10082811 5.44851231 5.97714597 -1.46875 0.8359375 C-14.75463215 -7.83198933 -31.96279208 -5.30740117 -42.4453125 6.33984375 Z " fill="#5F8E91" transform="translate(68.4453125,12.66015625)"/>
<path d="M0 0 C5.90756902 4.74750183 9.58759709 9.98712718 11.5546875 17.33984375 C13.24197288 32.88440905 6.38084518 42.86831517 -2.7109375 54.796875 C-4.38861462 57.2567124 -5.46024634 59.54044655 -6.4453125 62.33984375 C-6.7753125 62.33984375 -7.1053125 62.33984375 -7.4453125 62.33984375 C-7.06755966 56.56458392 -5.37849901 53.31391918 -1.6953125 49.02734375 C4.97530636 40.83824861 9.97860228 32.66844027 9.8359375 21.84375 C9.02561615 14.62963912 5.68754728 8.35604763 0.5546875 3.33984375 C-8.11889678 -3.03117225 -15.89334659 -3.2612176 -26.4453125 -2.66015625 C-32.52836377 -1.5455599 -37.38747536 1.7686063 -41.4453125 6.33984375 C-47.9938734 15.93424693 -48.34801481 25.16146769 -46.4453125 36.33984375 C-49.82169544 32.96346081 -49.71408335 29.48870886 -49.8828125 24.90234375 C-49.80260489 16.27556958 -47.25861689 9.59198079 -41.4765625 3.14453125 C-29.64721163 -7.72937205 -13.34328143 -9.05893708 0 0 Z " fill="#487A7E" transform="translate(68.4453125,12.66015625)"/>
<path d="M0 0 C6.93 0 13.86 0 21 0 C21 0.99 21 1.98 21 3 C14.07 3 7.14 3 0 3 C0 2.01 0 1.02 0 0 Z " fill="#85D7DC" transform="translate(39,83)"/>
<path d="M0 0 C6.27 0 12.54 0 19 0 C19.33 0.99 19.66 1.98 20 3 C13.4 3 6.8 3 0 3 C0 2.01 0 1.02 0 0 Z " fill="#83D0D5" transform="translate(40,79)"/>
<path d="M0 0 C0 0.66 0 1.32 0 2 C-0.66386719 2.09796875 -1.32773437 2.1959375 -2.01171875 2.296875 C-8.65719267 3.42223993 -12.5634789 4.7803114 -16.75 10.3125 C-18.24939856 13.5362069 -18.65467681 16.47770341 -19 20 C-19.66 20 -20.32 20 -21 20 C-20.50901749 12.88075365 -18.96895778 8.74057641 -13.5625 3.75 C-8.95452575 0.60309075 -5.58363281 -0.25970385 0 0 Z " fill="#6B999C" transform="translate(50,17)"/>
<path d="M0 0 C3.63 0 7.26 0 11 0 C10.34 1.32 9.68 2.64 9 4 C6.0625 4.875 6.0625 4.875 3 5 C2.01 4.34 1.02 3.68 0 3 C0 2.01 0 1.02 0 0 Z " fill="#8AE4E9" transform="translate(44,87)"/>
<path d="M0 0 C0.53625 0.680625 1.0725 1.36125 1.625 2.0625 C3.88485106 4.33313837 3.88485106 4.33313837 7.0625 3.9375 C9.95234148 3.01521017 11.1620287 2.34851888 13 0 C13 1.32 13 2.64 13 4 C9.28986601 6.47342266 7.38939738 6.38503486 3 6 C0.5625 4.5 0.5625 4.5 -1 3 C-0.67 2.01 -0.34 1.02 0 0 Z " fill="#3E7A7F" transform="translate(43,87)"/>
<path d="M0 0 C0.66 0.33 1.32 0.66 2 1 C-1.63 4.63 -5.26 8.26 -9 12 C-9 8.47601214 -8.44884893 7.98495633 -6.1875 5.4375 C-5.40439453 4.53837891 -5.40439453 4.53837891 -4.60546875 3.62109375 C-3 2 -3 2 0 0 Z " fill="#88DFE4" transform="translate(34,12)"/>
</svg>
