<?xml version="1.0" encoding="UTF-8"?>
<svg version="1.1" xmlns="http://www.w3.org/2000/svg" width="100" height="100">
<path d="M0 0 C1.25671509 0.0146228 1.25671509 0.0146228 2.53881836 0.02954102 C13.24718602 0.33656487 19.67453514 3.65587425 27.42578125 11.06640625 C35.78305402 20.0768229 37.22623039 29.16017805 36.9140625 41.04296875 C36.29971408 52.93785294 28.65653039 61.47135029 21.77661133 70.69506836 C19.60215624 73.98510142 19.52302305 76.9278333 19.375 80.75 C18.89892946 86.15020309 17.72062063 88.69044283 13.625 92.4375 C13.05652344 92.99566406 12.48804688 93.55382812 11.90234375 94.12890625 C7.43355594 98.08382934 3.50329835 99.53119293 -2.48046875 99.23828125 C-8.16586574 97.66539814 -12.32239853 93.57982696 -16.375 89.4375 C-17.54375672 87.09998657 -17.50966215 85.54084003 -17.625 82.9375 C-18.46849262 74.27929639 -22.6995434 68.18557588 -27.9375 61.4375 C-36.16154265 50.60917717 -37.90204249 40.8368063 -36.375 27.4375 C-35.54194632 23.98828336 -34.34004487 21.37588485 -32.375 18.4375 C-31.95089844 17.756875 -31.52679687 17.07625 -31.08984375 16.375 C-23.53331978 5.26122659 -13.26967896 -0.17243765 0 0 Z " fill="#FCE68F" transform="translate(49.375,0.5625)"/>
<path d="M0 0 C1.25671509 0.0146228 1.25671509 0.0146228 2.53881836 0.02954102 C13.24718602 0.33656487 19.67453514 3.65587425 27.42578125 11.06640625 C35.78305402 20.0768229 37.22623039 29.16017805 36.9140625 41.04296875 C36.29971408 52.93785294 28.65653039 61.47135029 21.77661133 70.69506836 C19.60215624 73.98510142 19.52302305 76.9278333 19.375 80.75 C18.89892946 86.15020309 17.72062063 88.69044283 13.625 92.4375 C13.05652344 92.99566406 12.48804688 93.55382812 11.90234375 94.12890625 C7.43355594 98.08382934 3.50329835 99.53119293 -2.48046875 99.23828125 C-8.16586574 97.66539814 -12.32239853 93.57982696 -16.375 89.4375 C-17.54375672 87.09998657 -17.50966215 85.54084003 -17.625 82.9375 C-18.46849262 74.27929639 -22.6995434 68.18557588 -27.9375 61.4375 C-36.16154265 50.60917717 -37.90204249 40.8368063 -36.375 27.4375 C-35.54194632 23.98828336 -34.34004487 21.37588485 -32.375 18.4375 C-31.95089844 17.756875 -31.52679687 17.07625 -31.08984375 16.375 C-23.53331978 5.26122659 -13.26967896 -0.17243765 0 0 Z M-24.375 17.4375 C-29.72141724 25.31083086 -31.06928292 31.98753806 -30.375 41.4375 C-29.03502578 48.42126394 -25.48564303 53.75681971 -21.375 59.4375 C-20.12129675 61.1848489 -18.87131303 62.9348723 -17.625 64.6875 C-17.05265625 65.47640625 -16.4803125 66.2653125 -15.890625 67.078125 C-13.1160474 71.39731281 -12.11854411 75.15180653 -11.75 80.25 C-11.67523438 81.22582031 -11.60046875 82.20164062 -11.5234375 83.20703125 C-11.44996094 84.31111328 -11.44996094 84.31111328 -11.375 85.4375 C-10.41980469 85.60765625 -10.41980469 85.60765625 -9.4453125 85.78125 C-8.76210938 85.9978125 -8.07890625 86.214375 -7.375 86.4375 C-6.25 88.9375 -6.25 88.9375 -5.375 91.4375 C-2.28326248 92.98336876 0.21929552 92.73109521 3.625 92.4375 C6.10731727 90.70739612 6.10731727 90.70739612 7.625 88.4375 C7.625 87.7775 7.625 87.1175 7.625 86.4375 C8.945 86.4375 10.265 86.4375 11.625 86.4375 C11.63917969 85.68726562 11.65335938 84.93703125 11.66796875 84.1640625 C12.21070934 72.51714288 16.42419433 65.6284668 23.7578125 56.828125 C30.22836634 48.54365021 31.80219806 39.74655485 30.625 29.4375 C27.66958816 20.29862502 22.63939444 13.54200252 14.08984375 9.12890625 C0.09216244 3.30828769 -14.26878599 5.93887428 -24.375 17.4375 Z " fill="#FBCA01" transform="translate(49.375,0.5625)"/>
<path d="M0 0 C6.69456512 5.19559228 10.97016677 12.53622486 12.25390625 20.91015625 C12.66258588 32.46216715 8.54466037 39.98447894 1.71484375 48.98046875 C-3.17319771 55.47846038 -6.19817728 60.57154275 -6.81640625 68.78515625 C-6.90019531 69.87183594 -6.98398437 70.95851563 -7.0703125 72.078125 C-7.13089844 72.90957031 -7.19148438 73.74101563 -7.25390625 74.59765625 C-8.57390625 74.59765625 -9.89390625 74.59765625 -11.25390625 74.59765625 C-11.54265625 75.21640625 -11.83140625 75.83515625 -12.12890625 76.47265625 C-13.25390625 78.59765625 -13.25390625 78.59765625 -15.25390625 80.59765625 C-19.30027899 81.04725322 -21.40635449 81.24961914 -24.69140625 78.72265625 C-26.25390625 76.59765625 -26.25390625 76.59765625 -26.25390625 74.59765625 C-27.57390625 74.26765625 -28.89390625 73.93765625 -30.25390625 73.59765625 C-30.26808594 72.91960937 -30.28226563 72.2415625 -30.296875 71.54296875 C-30.87078524 60.34396359 -35.35164524 53.43973694 -42.38671875 44.984375 C-48.60951266 37.03013425 -50.19075597 28.55503045 -49.25390625 18.59765625 C-47.26920669 10.46756167 -42.89265933 3.74762033 -35.94140625 -0.97265625 C-24.32199318 -7.66146312 -11.43383087 -7.1139433 0 0 Z M-35.25390625 0.59765625 C-36.30578125 1.34015625 -37.35765625 2.08265625 -38.44140625 2.84765625 C-44.82310053 9.0875351 -47.49974528 15.26547604 -47.62890625 24.16015625 C-47.64664754 35.51077884 -42.78229248 42.44610559 -35.73291016 50.95776367 C-32.74614029 54.62501258 -31.83424345 56.85664466 -30.25390625 61.59765625 C-22.66390625 61.59765625 -15.07390625 61.59765625 -7.25390625 61.59765625 C-6.26390625 59.28765625 -5.27390625 56.97765625 -4.25390625 54.59765625 C-2.859375 52.38525391 -2.859375 52.38525391 -1.44140625 50.51171875 C-0.92320313 49.80789062 -0.405 49.1040625 0.12890625 48.37890625 C1.20328493 46.94640134 2.28139121 45.51668424 3.36328125 44.08984375 C9.10362493 36.26469863 11.56667922 29.31789613 10.3671875 19.5859375 C8.53376198 10.76473926 4.38682009 5.63834477 -2.65625 0.19140625 C-11.77675786 -5.40433391 -26.4812788 -5.94427865 -35.25390625 0.59765625 Z " fill="#90834D" transform="translate(68.25390625,12.40234375)"/>
<path d="M0 0 C0.33 0.66 0.66 1.32 1 2 C8.26 2 15.52 2 23 2 C23 4.64 23 7.28 23 10 C22.09906616 9.99214478 22.09906616 9.99214478 21.17993164 9.98413086 C18.47413162 9.96341986 15.76834823 9.95035875 13.0625 9.9375 C12.11697266 9.92912109 11.17144531 9.92074219 10.19726562 9.91210938 C9.29814453 9.90888672 8.39902344 9.90566406 7.47265625 9.90234375 C6.64000244 9.89710693 5.80734863 9.89187012 4.94946289 9.88647461 C2.99483202 9.78356708 2.99483202 9.78356708 2 11 C8.93 11 15.86 11 23 11 C23 11.99 23 12.98 23 14 C19.52125243 14.19590444 16.04199096 14.38031592 12.5625 14.5625 C11.56927734 14.61857422 10.57605469 14.67464844 9.55273438 14.73242188 C8.60849609 14.78076172 7.66425781 14.82910156 6.69140625 14.87890625 C5.81685791 14.9260376 4.94230957 14.97316895 4.04125977 15.02172852 C2 15 2 15 1 14 C0.76472227 11.65012738 0.58613583 9.29443961 0.4375 6.9375 C0.35371094 5.64714844 0.26992188 4.35679688 0.18359375 3.02734375 C0.12300781 2.02832031 0.06242187 1.02929688 0 0 Z " fill="#AB9E6B" transform="translate(37,72)"/>
<path d="M0 0 C1.14229879 3.42689636 0.90861076 5.61102218 0.5625 9.1875 C0.46066406 10.27417969 0.35882813 11.36085938 0.25390625 12.48046875 C0.17011719 13.31191406 0.08632813 14.14335938 0 15 C-1.32 15 -2.64 15 -4 15 C-4.433125 15.928125 -4.433125 15.928125 -4.875 16.875 C-6 19 -6 19 -8 21 C-12.04637274 21.44959697 -14.15244824 21.65196289 -17.4375 19.125 C-19 17 -19 17 -19 15 C-19.66 14.67 -20.32 14.34 -21 14 C-14.4 14 -7.8 14 -1 14 C-1 13.01 -1 12.02 -1 11 C-7.93 11 -14.86 11 -22 11 C-21.67 9.68 -21.34 8.36 -21 7 C-21 7.99 -21 8.98 -21 10 C-14.4 10 -7.8 10 -1 10 C-1 7.36 -1 4.72 -1 2 C-0.67 1.34 -0.34 0.68 0 0 Z " fill="#716B50" transform="translate(61,72)"/>
<path d="M0 0 C6.6 0 13.2 0 20 0 C20 0.99 20 1.98 20 3 C13.4 3 6.8 3 0 3 C0 2.01 0 1.02 0 0 Z " fill="#DFCD84" transform="translate(40,83)"/>
<path d="M0 0 C6.27 0 12.54 0 19 0 C19.33 0.99 19.66 1.98 20 3 C13.4 3 6.8 3 0 3 C0 2.01 0 1.02 0 0 Z " fill="#D5C480" transform="translate(40,79)"/>
<path d="M0 0 C3.63 0 7.26 0 11 0 C10.34 1.32 9.68 2.64 9 4 C6.69 4 4.38 4 2 4 C1.34 2.68 0.68 1.36 0 0 Z " fill="#F2DD8C" transform="translate(44,87)"/>
<path d="M0 0 C0.99 0.33 1.98 0.66 3 1 C1.3603125 2.0828125 1.3603125 2.0828125 -0.3125 3.1875 C-4.87833997 6.48043913 -6.67367389 9.19037341 -7.6875 14.8125 C-7.790625 15.864375 -7.89375 16.91625 -8 18 C-8.66 18 -9.32 18 -10 18 C-10.64414217 12.84686264 -9.23874534 9.98002499 -6.43359375 5.83984375 C-4.53297483 3.40062982 -2.64802531 1.60275216 0 0 Z " fill="#998F68" transform="translate(39,19)"/>
<path d="M0 0 C0.5259375 0.7425 0.5259375 0.7425 1.0625 1.5 C4.02552179 3.79395236 6.37042697 3.38888282 10 3 C11.94369738 1.64570159 11.94369738 1.64570159 13 0 C13 3 13 3 11.9375 4.6875 C8.89380812 6.74935579 6.5752817 6.43906968 3 6 C0.5625 4 0.5625 4 -1 2 C-0.67 1.34 -0.34 0.68 0 0 Z " fill="#95874D" transform="translate(43,87)"/>
<path d="M0 0 C0.66 0.33 1.32 0.66 2 1 C-1.63 4.63 -5.26 8.26 -9 12 C-9 7.8407692 -6.75316432 5.85455565 -4 3 C-1.6875 1.125 -1.6875 1.125 0 0 Z " fill="#E8D588" transform="translate(34,12)"/>
</svg>
