<?xml version="1.0" encoding="UTF-8"?>
<svg version="1.1" xmlns="http://www.w3.org/2000/svg" width="100" height="100">
<path d="M0 0 C5.35427232 5.02624378 10.85380131 12.69805168 11.9375 20.125 C11.85452732 23.1410569 11.6822917 26.14172623 11.484375 29.15234375 C11.73129355 32.30166654 11.73129355 32.30166654 14.015625 34.98046875 C17.63463392 37.63666648 19.49623898 37.60350396 23.9375 37.5 C33.91696075 37.67468977 41.92109904 41.93537393 49.125 48.8125 C53.64757192 53.6098611 54.45572847 57.75095 54.30859375 64.2421875 C53.44431311 70.95628343 50.07278647 75.53905793 44.8125 79.625 C38.59953201 83.97649509 32.30517769 83.70448027 24.9375 83.125 C3.93107138 78.45064725 -14.71387784 59.39785686 -26.00976562 41.89306641 C-31.57036071 32.55405212 -34.34355873 22.95240986 -33.0625 12.125 C-30.57373164 5.5208754 -26.45053939 0.24474017 -20.0625 -2.875 C-12.57540503 -5.99336752 -6.35330527 -5.00674732 0 0 Z " fill="#4B4B4B" transform="translate(39.0625,10.875)"/>
<path d="M0 0 C1.64105251 2.03290167 2.96799797 3.91283944 4.3125 6.125 C4.68439453 6.681875 5.05628906 7.23875 5.43945312 7.8125 C7.43347967 11.03561926 8.00272768 12.92937508 7.85546875 16.7421875 C7 20 7 20 5 23 C5.37233037 28.80114739 11.20721158 33.08756526 15 37 C15.71414062 37.73992188 16.42828125 38.47984375 17.1640625 39.2421875 C21.09015626 43.15939017 21.09015626 43.15939017 26.375 44 C28.9295182 43.07670078 28.9295182 43.07670078 31 42 C36.76295993 41.25639227 39.83930977 43.34679573 44.375 46.5 C45.01566406 46.92925781 45.65632813 47.35851562 46.31640625 47.80078125 C47.88590978 48.85492541 49.4441417 49.92581838 51 51 C50.24725967 55.516442 48.82365936 58.34585259 46 62 C39.42854709 64.1904843 34.31712492 63.22352913 28.26953125 60.24609375 C9.70543829 50.0534162 -6.19224155 34.42327535 -13 14 C-13.68899522 6.88038278 -13.68899522 6.88038278 -10.75 3.125 C-4.31164902 -1.8500894 -4.31164902 -1.8500894 0 0 Z " fill="#F1F1F1" transform="translate(31,19)"/>
</svg>
